<svg id="e3t0BCYXcDz1" xmlns="http://www.w3.org/2000/svg" xmlns:xlink="http://www.w3.org/1999/xlink" viewBox="0 0 148 25" shape-rendering="geometricPrecision" text-rendering="geometricPrecision"><g><path d="M37,6.299h5.227c.746,0,1.434.155,2.062.466.629.311,1.123.735,1.484,1.27s.542,1.12.542,1.754c0,.672-.165,1.254-.495,1.746-.33.491-.762.868-1.297,1.129v.15c.697.248,1.25.643,1.661,1.185.41.541.616,1.191.616,1.95c0,.735-.196,1.385-.588,1.951-.399505.572614-.948418,1.02468-1.587,1.307-.665.305-1.403.457-2.212.457h-5.413v-13.365Zm5.04,5.45c.548,0,.986-.152,1.316-.457s.495-.688.495-1.148c0-.448-.159-.824-.476-1.13-.318-.304-.738-.457-1.26-.457h-2.595v3.192h2.52Zm.28,5.619c.61,0,1.086-.159,1.428-.476s.513-.731.513-1.241-.174-.927-.522-1.251c-.349-.324-.847-.485-1.494-.485h-2.725v3.453h2.8Zm12.927,2.595c-1.307,0-2.492-.308-3.556-.924-1.04976-.601564-1.917366-1.475735-2.511-2.53-.61-1.07-.915-2.246-.915-3.528c0-1.281.305-2.457.915-3.528.593503-1.053767,1.460738-1.927567,2.51-2.529C52.756,6.308,53.94,6,55.248,6c1.306,0,2.492.308,3.556.924c1.049393.601707,1.916641,1.475865,2.51,2.53.61,1.07.915,2.246.915,3.527c0,1.282-.305,2.458-.915,3.528-.593359,1.054135-1.460607,1.928293-2.51,2.53-1.064.616-2.25.924-3.556.924Zm0-2.39c.790254.008045,1.568806-.191248,2.258-.578.679129-.380288,1.238492-.942768,1.615-1.624.392-.697.588-1.494.588-2.39s-.196-1.692-.588-2.389c-.376508-.681232-.935871-1.243712-1.615-1.624-.689098-.387101-1.467656-.58674-2.258-.579-.787923-.008688-1.564143.191059-2.25.579-.674864.382523-1.230445.944682-1.605,1.624-.392.697-.588,1.493-.588,2.39c0,.895.196,1.692.588,2.389.374555.679318.930136,1.241477,1.605,1.624.685954.387593,1.462167.586993,2.25.578ZM70.6,19.963c-1.307,0-2.492-.308-3.556-.924-1.049393-.601707-1.916641-1.475865-2.51-2.53-.61-1.07-.915-2.246-.915-3.528c0-1.281.305-2.457.914-3.528.593777-1.053897,1.461371-1.92771,2.511-2.529C68.108,6.308,69.294,6,70.6,6c1.307,0,2.492.308,3.556.924c1.049393.601707,1.916641,1.475865,2.51,2.53.61,1.07.915,2.246.915,3.527c0,1.282-.305,2.458-.914,3.528-.593634,1.054265-1.46124,1.928436-2.511,2.53-1.064.616-2.25.924-3.556.924Zm0-2.39c.790592.00822,1.569511-.191078,2.259-.578.67876-.380436,1.237764-.942903,1.614-1.624.392-.697.588-1.494.588-2.39s-.196-1.692-.588-2.389c-.376236-.681097-.93524-1.243564-1.614-1.624-.689393-.387271-1.468318-.586915-2.259-.579-.787923-.008688-1.564143.191059-2.25.579-.674864.382523-1.230445.944682-1.605,1.624-.392.697-.588,1.493-.588,2.39c0,.895.196,1.692.588,2.389.374827.679452.930768,1.241623,1.606,1.624.68566.387422,1.461506.586817,2.249.578ZM79.83,6.3h2.52v5.73h.15L87.39,6.3h3.043v.149L85.6,11.973l5.338,7.542v.149h-3.08l-3.994-5.693-1.512,1.773v3.92h-2.52v-13.365ZM93.779,6h3.248l3.546,9.39h.15L104.268,6h3.267v13.365h-2.501v-6.589l.15-2.221h-.15l-3.398,8.81h-1.96l-3.416-8.81h-.149l.15,2.221v6.59h-2.483v-13.366Zm20.8,0h2.894l5.021,13.365h-2.781l-1.12-3.192h-5.115l-1.12,3.192h-2.781L114.579,6Zm3.193,7.859l-1.176-3.36-.486-1.606h-.149l-.485,1.606-1.195,3.36h3.49ZM124.553,6h4.872c.871,0,1.646.18,2.324.541s1.204.862,1.577,1.503c.374.64.56,1.366.56,2.175c0,.858-.27,1.62-.812,2.286-.53501.661435-1.242367,1.162191-2.044,1.447l-.018.13l3.584,5.134v.15h-2.894l-3.453-5.022h-1.176v5.021h-2.52v-13.365Zm4.853,6.03c.573,0,1.04-.175,1.4-.523.361-.349.542-.79.542-1.326c0-.51-.172-.945-.514-1.306s-.806-.542-1.39-.542h-2.371v3.696h2.333ZM136.636,6h2.52v5.73h.15L144.196,6h3.043v.15l-4.835,5.525l5.34,7.541v.15h-3.08l-3.996-5.694-1.512,1.773v3.92h-2.52v-13.365Z" fill="#fff"/><g><circle r="12.5" transform="translate(12.5 12.5)" fill="#5267df" fill-rule="evenodd"/><path d="M9,9v10l3.54-3.44L16.078,19v-10c0-1.104569-.895431-2-2-2L11,7C9.895431,7,9,7.895431,9,9Z" fill="#fff" fill-rule="evenodd"/></g></g></svg>